# xmcd
#
# Track frame offsets: 
#        150
#        12231
#        40802
#        59744
#        72112
#        83069
#        96015
#        107237
#        122297
#        135226
#
# Disc length: 1992 seconds
#
# Revision: 2
# Processed by: cddbd v1.5.2PL0 Copyright (c) Steve Scherf et al.
# Submitted via: ExactAudioCopyFreeDBPlugin 1.0
#
DISCID=7907c60a
DTITLE=The Isley Brothers - In The Beginning . . . The Isley Brothers 
DTITLE=& Jimi Hendrix
DYEAR=1971
DGENRE=Rhythm and Blues
TTITLE0=Move Over and Let Me Dance, Part 1 (ft Jimi Hendrix)
TTITLE1=Have You Ever Been Disappointed, Parts 1 and 2 (ft Jimi Hendrix)
TTITLE2=Testify, Parts 1 and 2 (mono) (ft Jimi Hendrix)
TTITLE3=Move Over and Let Me Dance, Part 2 (ft Jimi Hendrix)
TTITLE4=Wild Little Tiger (ft Jimi Hendrix)
TTITLE5=The Last Girl (ft Jimi Hendrix)
TTITLE6=Simon Says (mono) (ft Jimi Hendrix)
TTITLE7=Looking for a Love (ft Jimi Hendrix)
TTITLE8=Testify, Part 1 (single) (mono) (ft Jimi Hendrix)
TTITLE9=Testify, Part 2 (single) (mono) (ft Jimi Hendrix)
EXTD=
EXTT0=
EXTT1=
EXTT2=
EXTT3=
EXTT4=
EXTT5=
EXTT6=
EXTT7=
EXTT8=
EXTT9=
PLAYORDER=
